<mxfile host="Electron" modified="2024-02-28T16:55:55.383Z" agent="Mozilla/5.0 (Windows NT 10.0; Win64; x64) AppleWebKit/537.36 (KHTML, like Gecko) draw.io/23.1.5 Chrome/120.0.6099.109 Electron/28.1.0 Safari/537.36" etag="RNOr4tYzoNL8-q25qZuX" version="23.1.5" type="device">
  <diagram name="main" id="vJdtQJIsOYuOTcM22SMi">
    <mxGraphModel dx="1098" dy="697" grid="1" gridSize="10" guides="1" tooltips="1" connect="1" arrows="1" fold="1" page="1" pageScale="1" pageWidth="850" pageHeight="1100" math="0" shadow="0">
      <root>
        <mxCell id="0" />
        <mxCell id="1" parent="0" />
        <mxCell id="-W3fMCF90rCaepoV7M0M-8" style="edgeStyle=orthogonalEdgeStyle;rounded=0;orthogonalLoop=1;jettySize=auto;html=1;entryX=0.5;entryY=1;entryDx=0;entryDy=0;" parent="1" source="-W3fMCF90rCaepoV7M0M-1" target="-W3fMCF90rCaepoV7M0M-5" edge="1">
          <mxGeometry relative="1" as="geometry" />
        </mxCell>
        <mxCell id="-W3fMCF90rCaepoV7M0M-1" value="MINECRAFT&lt;br style=&quot;font-size: 18px;&quot;&gt;API" style="rounded=0;whiteSpace=wrap;html=1;fontSize=18;strokeColor=#C98B1C;" parent="1" vertex="1">
          <mxGeometry x="120" y="330" width="180" height="60" as="geometry" />
        </mxCell>
        <mxCell id="I86KyW1QcpuG732ZXUHq-4" style="edgeStyle=orthogonalEdgeStyle;rounded=0;orthogonalLoop=1;jettySize=auto;html=1;entryX=0.75;entryY=0;entryDx=0;entryDy=0;" edge="1" parent="1" source="-W3fMCF90rCaepoV7M0M-2" target="I86KyW1QcpuG732ZXUHq-1">
          <mxGeometry relative="1" as="geometry">
            <Array as="points">
              <mxPoint x="465" y="180" />
              <mxPoint x="465" y="180" />
            </Array>
          </mxGeometry>
        </mxCell>
        <mxCell id="-W3fMCF90rCaepoV7M0M-2" value="LUAU&lt;br&gt;C CODE" style="rounded=0;whiteSpace=wrap;html=1;fontSize=18;strokeColor=#0AF0E1;" parent="1" vertex="1">
          <mxGeometry x="330" y="130" width="180" height="60" as="geometry" />
        </mxCell>
        <mxCell id="-W3fMCF90rCaepoV7M0M-9" style="edgeStyle=orthogonalEdgeStyle;rounded=0;orthogonalLoop=1;jettySize=auto;html=1;entryX=0.5;entryY=1;entryDx=0;entryDy=0;" parent="1" source="-W3fMCF90rCaepoV7M0M-3" target="-W3fMCF90rCaepoV7M0M-1" edge="1">
          <mxGeometry relative="1" as="geometry">
            <Array as="points">
              <mxPoint x="420" y="430" />
              <mxPoint x="210" y="430" />
            </Array>
          </mxGeometry>
        </mxCell>
        <mxCell id="-W3fMCF90rCaepoV7M0M-10" style="edgeStyle=orthogonalEdgeStyle;rounded=0;orthogonalLoop=1;jettySize=auto;html=1;entryX=0.5;entryY=1;entryDx=0;entryDy=0;" parent="1" source="-W3fMCF90rCaepoV7M0M-3" target="-W3fMCF90rCaepoV7M0M-6" edge="1">
          <mxGeometry relative="1" as="geometry" />
        </mxCell>
        <mxCell id="-W3fMCF90rCaepoV7M0M-21" style="edgeStyle=orthogonalEdgeStyle;rounded=0;orthogonalLoop=1;jettySize=auto;html=1;entryX=0.5;entryY=1;entryDx=0;entryDy=0;" parent="1" source="-W3fMCF90rCaepoV7M0M-3" target="-W3fMCF90rCaepoV7M0M-17" edge="1">
          <mxGeometry relative="1" as="geometry">
            <Array as="points">
              <mxPoint x="420" y="430" />
              <mxPoint x="620" y="430" />
            </Array>
          </mxGeometry>
        </mxCell>
        <mxCell id="-W3fMCF90rCaepoV7M0M-3" value="CCT-LuaU&lt;br&gt;MOD" style="rounded=0;whiteSpace=wrap;html=1;fontSize=18;strokeColor=#C98B1C;" parent="1" vertex="1">
          <mxGeometry x="335" y="460" width="170" height="70" as="geometry" />
        </mxCell>
        <mxCell id="-W3fMCF90rCaepoV7M0M-5" value="VERSION&lt;br&gt;WRAPPER" style="rounded=0;whiteSpace=wrap;html=1;fontSize=18;strokeColor=#C98B1C;" parent="1" vertex="1">
          <mxGeometry x="120" y="230" width="180" height="60" as="geometry" />
        </mxCell>
        <mxCell id="I86KyW1QcpuG732ZXUHq-3" style="edgeStyle=orthogonalEdgeStyle;rounded=0;orthogonalLoop=1;jettySize=auto;html=1;entryX=0.5;entryY=1;entryDx=0;entryDy=0;" edge="1" parent="1" source="-W3fMCF90rCaepoV7M0M-6" target="I86KyW1QcpuG732ZXUHq-1">
          <mxGeometry relative="1" as="geometry" />
        </mxCell>
        <mxCell id="-W3fMCF90rCaepoV7M0M-6" value="JAVA FFI C API" style="rounded=0;whiteSpace=wrap;html=1;fontSize=18;strokeColor=#C98B1C;" parent="1" vertex="1">
          <mxGeometry x="330" y="330" width="180" height="60" as="geometry" />
        </mxCell>
        <mxCell id="-W3fMCF90rCaepoV7M0M-17" value="NETWORKING API" style="rounded=0;whiteSpace=wrap;html=1;fontSize=18;strokeColor=#C98B1C;" parent="1" vertex="1">
          <mxGeometry x="530" y="330" width="180" height="60" as="geometry" />
        </mxCell>
        <mxCell id="I86KyW1QcpuG732ZXUHq-2" style="edgeStyle=orthogonalEdgeStyle;rounded=0;orthogonalLoop=1;jettySize=auto;html=1;entryX=0.5;entryY=1;entryDx=0;entryDy=0;" edge="1" parent="1" source="I86KyW1QcpuG732ZXUHq-1" target="-W3fMCF90rCaepoV7M0M-2">
          <mxGeometry relative="1" as="geometry" />
        </mxCell>
        <mxCell id="I86KyW1QcpuG732ZXUHq-5" style="edgeStyle=orthogonalEdgeStyle;rounded=0;orthogonalLoop=1;jettySize=auto;html=1;entryX=0.75;entryY=0;entryDx=0;entryDy=0;" edge="1" parent="1" source="I86KyW1QcpuG732ZXUHq-1" target="-W3fMCF90rCaepoV7M0M-6">
          <mxGeometry relative="1" as="geometry">
            <Array as="points">
              <mxPoint x="460" y="270" />
              <mxPoint x="460" y="270" />
            </Array>
          </mxGeometry>
        </mxCell>
        <mxCell id="I86KyW1QcpuG732ZXUHq-1" value="FFI C API" style="rounded=0;whiteSpace=wrap;html=1;fontSize=18;strokeColor=#0AF0E1;" vertex="1" parent="1">
          <mxGeometry x="330" y="230" width="180" height="60" as="geometry" />
        </mxCell>
        <mxCell id="I86KyW1QcpuG732ZXUHq-6" value="MAKE A HTTP REQUEST IN LUA (JAVA VERSION):&lt;br&gt;1. http.request function is called&lt;br&gt;2. Parameters are passed back to java through an environment variable&lt;br&gt;3. Java creates a http request with the parameters after permission check (otherwise returns error)&lt;br&gt;4. Return response to LuaU and store in variable.&lt;div&gt;&lt;br&gt;&lt;/div&gt;" style="text;html=1;align=left;verticalAlign=middle;whiteSpace=wrap;rounded=0;" vertex="1" parent="1">
          <mxGeometry x="50" y="570" width="360" height="150" as="geometry" />
        </mxCell>
        <mxCell id="I86KyW1QcpuG732ZXUHq-8" value="" style="swimlane;startSize=0;" vertex="1" parent="1">
          <mxGeometry x="320" y="110" width="200" height="300" as="geometry" />
        </mxCell>
        <mxCell id="I86KyW1QcpuG732ZXUHq-9" value="" style="endArrow=none;html=1;rounded=0;" edge="1" parent="1">
          <mxGeometry width="50" height="50" relative="1" as="geometry">
            <mxPoint x="520" y="110" as="sourcePoint" />
            <mxPoint x="570" y="60" as="targetPoint" />
          </mxGeometry>
        </mxCell>
        <mxCell id="I86KyW1QcpuG732ZXUHq-10" value="CREATE IN A SEPARATE REPOSITORY TO THE MOD" style="text;html=1;align=center;verticalAlign=middle;whiteSpace=wrap;rounded=0;" vertex="1" parent="1">
          <mxGeometry x="570" y="40" width="120" height="50" as="geometry" />
        </mxCell>
      </root>
    </mxGraphModel>
  </diagram>
</mxfile>
